<?xml version="1.0" standalone="no"?>
<!DOCTYPE svg PUBLIC "-//W3C//DTD SVG 20010904//EN"
 "http://www.w3.org/TR/2001/REC-SVG-20010904/DTD/svg10.dtd">
<svg version="1.0" xmlns="http://www.w3.org/2000/svg"
 width="260.000000pt" height="260.000000pt" viewBox="0 0 260.000000 260.000000"
 preserveAspectRatio="xMidYMid meet">
<metadata>
Created by potrace 1.11, written by Peter Selinger 2001-2013
</metadata>
<g transform="translate(0.000000,260.000000) scale(0.100000,-0.100000)"
fill="#000000" stroke="none">
<path d="M1446 1822 c-16 -31 -50 -48 -165 -84 -82 -25 -99 -45 -82 -91 6 -15
17 -27 26 -27 8 0 50 18 93 39 42 22 87 43 100 46 l22 6 0 -198 c0 -320 -20
-482 -72 -574 -53 -95 -155 -86 -220 19 -19 31 -24 55 -28 154 -4 96 -9 120
-25 138 -44 49 -85 3 -85 -96 0 -111 53 -221 146 -303 50 -44 91 -57 155 -48
149 20 214 229 225 727 5 234 5 235 84 227 55 -6 70 -1 70 24 0 33 -43 52
-103 45 -39 -5 -57 -3 -72 8 -30 23 -53 19 -69 -12z"/>
</g>
</svg>
